<svg
   xmlns:dc="http://purl.org/dc/elements/1.1/"
   xmlns:cc="http://creativecommons.org/ns#"
   xmlns:rdf="http://www.w3.org/1999/02/22-rdf-syntax-ns#"
   xmlns:svg="http://www.w3.org/2000/svg"
   xmlns="http://www.w3.org/2000/svg"
   style="fill:none"
   version="1.1"
   viewBox="0 0 372.15671 327.90781"
   height="327.90781"
   width="372.15671">
  <metadata
     id="metadata182">
    <rdf:RDF>
      <cc:Work
         rdf:about="">
        <dc:format>image/svg+xml</dc:format>
        <dc:type
           rdf:resource="http://purl.org/dc/dcmitype/StillImage" />
        <dc:title></dc:title>
      </cc:Work>
    </rdf:RDF>
  </metadata>
  <defs
     id="defs180" />
  <path
     style="stroke-width:2.39102268"
     id="path116"
     d="m 17.34855,260.59811 12.495,31.22795 H 25.12367 L 21.57301,282.2646 H 8.13498 l -3.64057,9.56146 H 0 l 12.58443,-31.22795 z m 2.96678,18.37716 -5.43862,-14.42982 -5.52829,14.42982 z" />
  <path
     style="stroke-width:2.39102268"
     id="path118"
     d="m 60.379301,275.29094 v 16.53512 h -2.69468 l -1.07835,-3.90358 c -2.57752,3.09948 -6.02299,4.6491 -10.33878,4.6491 -4.5549,0 -8.23947,-1.47646 -11.05609,-4.42985 -2.785541,-2.98232 -4.179511,-6.87132 -4.179511,-11.66652 0,-4.76602 1.37723,-8.71336 4.134081,-11.84201 2.78793,-3.12866 6.59205,-4.6931 11.41713,-4.6931 2.21648,0 4.28472,0.38017 6.20232,1.14028 1.9176,0.73117 3.55066,1.90062 4.8992,3.50882 1.34854,1.57903 2.11127,3.45025 2.2906,5.61412 h -4.13408 c -0.32996,-2.04671 -1.34853,-3.68432 -3.05572,-4.91235 -1.6785,-1.2572 -3.74674,-1.88604 -6.20232,-1.88604 -3.47654,0 -6.23339,1.16969 -8.27054,3.50882 -2.03716,2.30997 -3.05573,5.45321 -3.05573,9.42996 0,3.91793 1.01857,7.032 3.05573,9.34196 2.03715,2.30997 4.77965,3.46483 8.22511,3.46483 3.23506,0 5.69303,-0.95019 7.37153,-2.85081 1.70719,-1.9298 2.60621,-4.47361 2.69707,-7.63143 h -10.24792 v -3.37732 z" />
  <path
     style="stroke-width:2.39102268"
     id="path120"
     d="m 66.258831,260.59811 h 14.06878 c 7.16111,0 10.74047,2.87998 10.74047,8.6402 0,1.81287 -0.50929,3.42107 -1.52786,4.8246 -0.98989,1.37436 -2.30734,2.29538 -3.95475,2.76307 1.07835,0.23408 1.94629,0.57026 2.60621,1.00877 0.65992,0.43875 1.13813,1.05277 1.4394,1.84228 0.29887,0.78928 0.49255,1.49105 0.58341,2.10506 0.0909,0.61425 0.16498,1.52069 0.22475,2.71931 0,0.11716 0.0144,0.40934 0.0454,0.87727 0.0287,0.43851 0.0454,0.74576 0.0454,0.92102 0,0.14633 0.0143,0.42393 0.043,0.83327 0.0598,0.40958 0.10521,0.71659 0.13629,0.92126 0.0287,0.20467 0.0741,0.48227 0.1339,0.83327 0.0598,0.35077 0.13629,0.64319 0.22475,0.87727 0.0909,0.20467 0.19607,0.4531 0.31562,0.74552 0.11955,0.26325 0.25345,0.51168 0.40408,0.74552 0.15064,0.20467 0.31323,0.39476 0.49494,0.57026 h -4.85377 c -0.21041,-0.29242 -0.38974,-0.65801 -0.54037,-1.09652 -0.11955,-0.43852 -0.21041,-0.9502 -0.27019,-1.53504 -0.0598,-0.61402 -0.1052,-1.09652 -0.1339,-1.44729 -0.0311,-0.38017 -0.0598,-0.92126 -0.0909,-1.62278 -0.0287,-0.70177 -0.0454,-1.09653 -0.0454,-1.18428 -0.14824,-2.66097 -0.7173,-4.42985 -1.70719,-5.30711 -0.9588,-0.87703 -2.8764,-1.31578 -5.7528,-1.31578 h -8.40444 v 13.5088 h -4.22494 z m 4.22494,3.50858 v 10.92124 h 7.95493 c 0.98988,0 1.81239,-0.0294 2.47232,-0.0877 0.68861,-0.0586 1.437,-0.19009 2.24756,-0.39476 0.80816,-0.20467 1.45374,-0.49709 1.93194,-0.87727 0.50929,-0.38017 0.93011,-0.92102 1.25768,-1.62278 0.32996,-0.70177 0.49494,-1.54963 0.49494,-2.54381 0,-2.1053 -0.65992,-3.52341 -1.97737,-4.25435 -1.28876,-0.76034 -3.05573,-1.14052 -5.30329,-1.14052 z" />
  <path
     style="stroke-width:2.39102268"
     id="path122"
     d="m 110.05998,259.85235 c 4.85377,0 8.6292,1.49128 11.32627,4.47384 2.69707,2.95315 4.04561,6.82733 4.04561,11.62276 0,4.82461 -1.33419,8.80112 -4.00018,11.92977 -2.66599,3.12865 -6.44142,4.69286 -11.32628,4.69286 -2.48666,0 -4.71987,-0.43851 -6.69725,-1.31578 -1.97738,-0.87703 -3.596099,-2.09047 -4.853779,-3.64033 -1.22898,-1.54962 -2.17104,-3.31874 -2.83097,-5.30688 -0.62884,-1.98837 -0.94445,-4.13742 -0.94445,-6.44739 0,-4.88319 1.37962,-8.77195 4.13647,-11.66676 2.785539,-2.89457 6.501189,-4.34209 11.144559,-4.34209 z m 0,3.59657 c -3.56502,0 -6.30752,1.22803 -8.22512,3.68409 -1.886519,2.42689 -2.830969,5.43862 -2.830969,9.0352 0,3.91817 1.004229,7.04682 3.012679,9.38596 2.03716,2.30996 4.74858,3.46483 8.13426,3.46483 3.35461,0 6.03734,-1.16945 8.0458,-3.50883 2.00606,-2.33914 3.01029,-5.4532 3.01029,-9.34196 0,-3.85959 -1.01857,-6.94449 -3.05572,-9.25446 -2.00846,-2.30996 -4.70554,-3.46483 -8.09122,-3.46483 z" />
  <path
     style="stroke-width:2.39102268"
     id="path124"
     d="m 170.11051,275.29094 v 16.53512 h -2.69707 l -1.07835,-3.90358 c -2.57753,3.09948 -6.02299,4.6491 -10.33639,4.6491 -4.5549,0 -8.23947,-1.47646 -11.05609,-4.42985 -2.78794,-2.98232 -4.1819,-6.87132 -4.1819,-11.66652 0,-4.76602 1.37962,-8.71336 4.13647,-11.84201 2.78554,-3.12866 6.59205,-4.6931 11.41474,-4.6931 2.21887,0 4.28471,0.38017 6.20231,1.14028 1.9176,0.73117 3.55067,1.90062 4.89921,3.50882 1.34854,1.57903 2.11366,3.45025 2.29299,5.61412 h -4.13408 c -0.32996,-2.04671 -1.34854,-3.68432 -3.05812,-4.91235 -1.6761,-1.2572 -3.74434,-1.88604 -6.20231,-1.88604 -3.47416,0 -6.23101,1.16969 -8.26816,3.50882 -2.03954,2.30997 -3.05812,5.45321 -3.05812,9.42996 0,3.91793 1.01858,7.032 3.05812,9.34196 2.03715,2.30997 4.77727,3.46483 8.22512,3.46483 3.23506,0 5.69303,-0.95019 7.36913,-2.85081 1.70958,-1.9298 2.60861,-4.47361 2.69708,-7.63143 h -10.24793 v -3.37732 z" />
  <path
     style="stroke-width:2.39102268"
     id="path126"
     d="m 197.24862,288.22948 v 3.59658 h -21.21554 v -31.22795 h 4.22493 v 27.63137 z" />
  <path
     style="stroke-width:2.39102268"
     id="path128"
     d="m 213.99774,259.85235 c 4.85377,0 8.6292,1.49128 11.32627,4.47384 2.69707,2.95315 4.04322,6.82733 4.04322,11.62276 0,4.82461 -1.3318,8.80112 -3.99779,11.92977 -2.66838,3.12865 -6.44381,4.69286 -11.32628,4.69286 -2.48905,0 -4.71987,-0.43851 -6.69725,-1.31578 -1.97738,-0.87703 -3.5961,-2.09047 -4.85378,-3.64033 -1.22898,-1.54962 -2.17344,-3.31874 -2.83336,-5.30688 -0.62884,-1.98837 -0.94206,-4.13742 -0.94206,-6.44739 0,-4.88319 1.37723,-8.77195 4.13408,-11.66676 2.78793,-2.89457 6.50119,-4.34209 11.14695,-4.34209 z m 0,3.59657 c -3.56502,0 -6.30752,1.22803 -8.22512,3.68409 -1.88891,2.42689 -2.83097,5.43862 -2.83097,9.0352 0,3.91817 1.00183,7.04682 3.01029,9.38596 2.03716,2.30996 4.74857,3.46483 8.13426,3.46483 3.357,0 6.03973,-1.16945 8.04579,-3.50883 2.00846,-2.33914 3.01269,-5.4532 3.01269,-9.34196 0,-3.85959 -1.02096,-6.94449 -3.05811,-9.25446 -2.00607,-2.30996 -4.70315,-3.46483 -8.08883,-3.46483 z" />
  <path
     style="stroke-width:2.39102268"
     id="path130"
     d="m 234.21144,260.59811 h 14.06878 c 7.16111,0 10.74047,2.87998 10.74047,8.6402 0,1.81287 -0.50928,3.42107 -1.52786,4.8246 -0.98749,1.37436 -2.30734,2.29538 -3.95475,2.76307 1.07835,0.23408 1.94868,0.57026 2.60621,1.00877 0.65993,0.43875 1.13813,1.05277 1.4394,1.84228 0.29888,0.78928 0.49494,1.49105 0.58341,2.10506 0.0909,0.61425 0.16498,1.52069 0.22476,2.71931 0,0.11716 0.0143,0.40934 0.0454,0.87727 0.0287,0.43851 0.0454,0.74576 0.0454,0.92102 0,0.14633 0.0143,0.42393 0.0454,0.83327 0.0598,0.40958 0.10282,0.71659 0.1339,0.92126 0.0287,0.20467 0.0741,0.48227 0.1339,0.83327 0.0598,0.35077 0.13629,0.64319 0.22475,0.87727 0.0909,0.20467 0.19607,0.4531 0.31562,0.74552 0.11955,0.26325 0.25345,0.51168 0.40408,0.74552 0.15064,0.20467 0.31562,0.39476 0.49494,0.57026 h -4.85377 c -0.21041,-0.29242 -0.38974,-0.65801 -0.54037,-1.09652 -0.11955,-0.43852 -0.21041,-0.9502 -0.27019,-1.53504 -0.0598,-0.61402 -0.10281,-1.09652 -0.1339,-1.44729 -0.0311,-0.38017 -0.0598,-0.92126 -0.0909,-1.62278 -0.0287,-0.70177 -0.043,-1.09653 -0.043,-1.18428 -0.15064,-2.66097 -0.7197,-4.42985 -1.70958,-5.30711 -0.9588,-0.87703 -2.87641,-1.31578 -5.75281,-1.31578 h -8.40444 v 13.5088 h -4.22494 z m 4.22494,3.50858 v 10.92124 h 7.95493 c 0.98989,0 1.8124,-0.0294 2.47232,-0.0877 0.68861,-0.0586 1.4394,-0.19009 2.24756,-0.39476 0.80817,-0.20467 1.45374,-0.49709 1.93195,-0.87727 0.50929,-0.38017 0.93011,-0.92102 1.26007,-1.62278 0.32757,-0.70177 0.49255,-1.54963 0.49255,-2.54381 0,-2.1053 -0.65753,-3.52341 -1.97738,-4.25435 -1.28876,-0.76034 -3.05573,-1.14052 -5.30329,-1.14052 z" />
  <path
     style="stroke-width:2.39102268"
     id="path132"
     d="m 288.43506,260.59811 -12.3592,18.46491 v 12.76304 h -4.17951 V 279.06302 L 259.4463,260.59811 h 5.07853 l 9.57365,14.86833 9.4828,-14.86833 z" />
  <path
     style="stroke-width:2.39102268"
     id="path134"
     d="m 325.8187,260.59811 v 3.59633 h -10.74048 v 27.63162 h -4.22493 v -27.63162 h -10.74287 v -3.59633 z" />
  <path
     style="stroke-width:2.39102268"
     id="path136"
     d="m 333.37911,260.59811 v 31.22795 h -4.22494 v -31.22795 z" />
  <path
     style="stroke-width:2.39102268"
     id="path138"
     d="m 340.20309,260.59811 h 5.84127 l 10.29335,26.44734 9.93231,-26.44734 h 5.8867 v 31.22795 h -4.00018 v -26.05259 l -10.02078,26.05259 h -3.68696 l -10.20249,-26.05259 v 26.05259 h -4.04322 z" />
  <path
     style="stroke-width:2.39102268"
     id="path140"
     d="m 401.01636,260.59811 v 3.59633 h -17.93267 v 9.78072 h 16.76346 v 3.46483 h -16.76346 v 10.78949 h 18.15743 v 3.59658 h -22.38236 v -31.22795 z" />
  <circle
     r="118.70761"
     style="stroke-width:3.41204047"
     id="circle170"
     cy="120.41363"
     cx="188.81769" />
  <path
     style="stroke-width:3.41204047"
     id="path172"
     d="m 188.62182,140.07285 c 7.81152,0 14.86387,-1.92439 21.15669,-5.77317 6.29283,-3.90304 11.17512,-9.26949 14.64687,-16.09972 v 19.27087 h 8.6253 V 54.207484 h -8.6253 v 19.10811 c -3.14624,-6.77598 -7.92037,-12.08818 -14.32136,-15.93696 -6.40133,-3.84878 -13.56218,-5.77318 -21.4822,-5.77318 -7.92003,0 -15.02663,1.9244 -21.31946,5.77318 -6.23857,3.79453 -11.17511,9.02553 -14.80962,15.69334 -3.6345,6.66746 -5.45175,14.256523 -5.45175,22.767183 0,8.510653 1.81725,16.099713 5.45175,22.767183 3.68876,6.66781 8.6526,11.92576 14.89117,15.77454 6.29249,3.79453 13.37213,5.69197 21.23791,5.69197 z m 1.79029,-7.64331 c -6.67258,0 -12.6126,-1.57227 -17.8204,-4.71613 -5.2078,-3.14419 -9.30361,-7.4536 -12.2871,-12.92856 -2.98383,-5.52921 -4.47557,-11.84456 -4.47557,-18.945693 0,-7.10114 1.49174,-13.389533 4.47557,-18.864493 2.98349,-5.52921 7.0793,-9.86558 12.2871,-13.00977 5.2078,-3.1442 11.14782,-4.71612 17.8204,-4.71612 6.7265,0 12.66686,1.57192 17.82041,4.71612 5.2078,3.08994 9.27631,7.39935 12.20555,12.92856 2.98383,5.47496 4.47557,11.790313 4.47557,18.945703 0,7.101133 -1.49174,13.416483 -4.47557,18.945693 -2.92924,5.52921 -6.99775,9.86592 -12.20555,13.00977 -5.15355,3.08994 -11.09391,4.63492 -17.82041,4.63492 z" />
  <path
     style="stroke-width:3.41204047;image-rendering:auto"
     id="path174"
     d="m 196.03243,189.22261 c 5.74314,0 11.14816,-0.88713 16.21572,-2.66071 5.06756,-1.77392 9.54348,-4.20568 13.42877,-7.29563 l -4.22309,-6.17954 c -6.58762,5.49304 -14.75161,8.23939 -24.4923,8.23939 -7.54505,0 -14.21695,-1.68793 -20.0164,-5.06381 -5.79944,-3.37587 -10.332,-7.98212 -13.59766,-13.81842 -3.26567,-5.89362 -4.89833,-12.53106 -4.89833,-19.91233 0,-7.38126 1.63266,-13.99038 4.89833,-19.82668 3.26566,-5.89362 7.77024,-10.52819 13.51304,-13.90441 5.79945,-3.37587 12.44337,-5.0638 19.93212,-5.0638 9.68439,0 17.96098,2.74669 24.8301,8.23973 l 4.05419,-6.17989 c -3.7727,-3.08994 -8.24861,-5.5217 -13.42877,-7.295283 -5.12386,-1.77392 -10.52888,-2.66071 -16.21572,-2.66071 -8.78362,0 -16.69443,2.03119 -23.73245,6.093913 -6.98172,4.00505 -12.52765,9.52675 -16.63813,16.56477 -4.11015,7.03801 -6.16522,15.0488 -6.16522,24.03236 0,8.98322 2.05507,16.99401 6.16522,24.03203 4.16678,7.03801 9.76901,12.58838 16.80703,16.65076 7.03801,4.00539 14.89253,6.00826 23.56355,6.00826 z" />
  <ellipse
     ry="3.7231503"
     rx="64.844872"
     cy="551.99146"
     cx="51.107121"
     id="path184"
     style="fill-opacity:0" />
  <text
     id="text3893"
     y="327.45343"
     x="64.504135"
     style="font-style:normal;font-variant:normal;font-weight:normal;font-stretch:normal;font-size:26.72673607px;line-height:1.25;font-family:'Helvetica Neue';-inkscape-font-specification:'Helvetica Neue, Normal';font-variant-ligatures:normal;font-variant-caps:normal;font-variant-numeric:normal;text-align:start;letter-spacing:0px;word-spacing:0px;writing-mode:lr-tb;text-anchor:start;fill-opacity:1;stroke:none;stroke-width:0.66816843"
     xml:space="preserve"><tspan
       style="stroke-width:0.66816843"
       y="327.45343"
       x="64.504135"
       id="tspan3891">ESSE GRADUM ANTE</tspan></text>
  <flowRoot
     transform="translate(-65.861849,-12.753163)"
     style="font-style:normal;font-variant:normal;font-weight:normal;font-stretch:normal;font-size:40px;line-height:1.25;font-family:'Helvetica Neue';-inkscape-font-specification:'Helvetica Neue, Normal';font-variant-ligatures:normal;font-variant-caps:normal;font-variant-numeric:normal;text-align:start;letter-spacing:0px;word-spacing:0px;writing-mode:lr-tb;text-anchor:start;fill:#000000;fill-opacity:1;stroke:none"
     id="flowRoot3895"
     xml:space="preserve"><flowRegion
       id="flowRegion3897"><rect
         y="248.89737"
         x="61.43198"
         height="57.088306"
         width="396.5155"
         id="rect3899" /></flowRegion><flowPara
       id="flowPara3901" /></flowRoot></svg>
